<svg xmlns="http://www.w3.org/2000/svg" viewBox="0 0 900 620" font-family="Segoe UI, Arial, sans-serif">
  <defs>
    <style>
      .title { font-size: 22px; font-weight: 700; fill: #1a1a2e; }
      .subtitle { font-size: 13px; fill: #666; }
      .box-label { font-size: 13px; font-weight: 600; fill: #fff; }
      .box-detail { font-size: 11px; fill: #ffffffcc; }
      .note { font-size: 11px; fill: #555; }
      .arrow { stroke: #888; stroke-width: 1.5; fill: none; marker-end: url(#arrowhead); }
      .arrow-highlight { stroke: #03a9f4; stroke-width: 2; fill: none; marker-end: url(#arrowhead-blue); }
      .arrow-sensor { stroke: #4caf50; stroke-width: 1.5; fill: none; marker-end: url(#arrowhead-green); stroke-dasharray: 6 3; }
      .cycle-text { font-size: 12px; font-weight: 600; }
      .cycle-active { fill: #03a9f4; }
      .cycle-dim { fill: #bbb; }
      .legend-text { font-size: 11px; fill: #555; }
    </style>
    <marker id="arrowhead" markerWidth="8" markerHeight="6" refX="8" refY="3" orient="auto">
      <polygon points="0 0, 8 3, 0 6" fill="#888"/>
    </marker>
    <marker id="arrowhead-blue" markerWidth="8" markerHeight="6" refX="8" refY="3" orient="auto">
      <polygon points="0 0, 8 3, 0 6" fill="#03a9f4"/>
    </marker>
    <marker id="arrowhead-green" markerWidth="8" markerHeight="6" refX="8" refY="3" orient="auto">
      <polygon points="0 0, 8 3, 0 6" fill="#4caf50"/>
    </marker>
    <linearGradient id="grad-blue" x1="0" y1="0" x2="0" y2="1">
      <stop offset="0%" stop-color="#1976d2"/>
      <stop offset="100%" stop-color="#1565c0"/>
    </linearGradient>
    <linearGradient id="grad-teal" x1="0" y1="0" x2="0" y2="1">
      <stop offset="0%" stop-color="#00897b"/>
      <stop offset="100%" stop-color="#00796b"/>
    </linearGradient>
    <linearGradient id="grad-orange" x1="0" y1="0" x2="0" y2="1">
      <stop offset="0%" stop-color="#f57c00"/>
      <stop offset="100%" stop-color="#ef6c00"/>
    </linearGradient>
    <linearGradient id="grad-green" x1="0" y1="0" x2="0" y2="1">
      <stop offset="0%" stop-color="#43a047"/>
      <stop offset="100%" stop-color="#388e3c"/>
    </linearGradient>
    <linearGradient id="grad-purple" x1="0" y1="0" x2="0" y2="1">
      <stop offset="0%" stop-color="#7b1fa2"/>
      <stop offset="100%" stop-color="#6a1b9a"/>
    </linearGradient>
    <filter id="shadow" x="-4%" y="-4%" width="108%" height="116%">
      <feDropShadow dx="0" dy="2" stdDeviation="3" flood-opacity="0.15"/>
    </filter>
  </defs>

  <!-- Background -->
  <rect width="900" height="620" rx="12" fill="#f8f9fa"/>

  <!-- Title -->
  <text x="450" y="38" text-anchor="middle" class="title">Virtual Garage Cover — Architecture</text>
  <text x="450" y="56" text-anchor="middle" class="subtitle">How the integration controls your garage door</text>

  <!-- ═══ HARDWARE LAYER ═══ -->
  <text x="30" y="100" font-size="11" font-weight="700" fill="#999" letter-spacing="2">HARDWARE</text>
  <line x1="30" y1="106" x2="870" y2="106" stroke="#e0e0e0" stroke-width="1"/>

  <!-- Motor Controller -->
  <rect x="340" y="120" width="220" height="56" rx="8" fill="url(#grad-orange)" filter="url(#shadow)"/>
  <text x="360" y="144" class="box-label">Garage Motor Controller</text>
  <text x="360" y="160" class="box-detail">Single-Button: Open → Stop → Close → Stop</text>

  <!-- Switch/Relay -->
  <rect x="50" y="120" width="200" height="56" rx="8" fill="url(#grad-blue)" filter="url(#shadow)"/>
  <text x="70" y="144" class="box-label">Smart Relay (switch.*)</text>
  <text x="70" y="160" class="box-detail">e.g., Shelly 1 / Sonoff Basic</text>

  <!-- Closed Sensor -->
  <rect x="650" y="120" width="210" height="56" rx="8" fill="url(#grad-green)" filter="url(#shadow)"/>
  <text x="670" y="144" class="box-label">Closed Sensor</text>
  <text x="670" y="160" class="box-detail">binary_sensor.* (reed switch)</text>

  <!-- Open Sensor -->
  <rect x="650" y="192" width="210" height="56" rx="8" fill="url(#grad-green)" filter="url(#shadow)" opacity="0.65"/>
  <text x="670" y="216" class="box-label">Open Sensor (optional)</text>
  <text x="670" y="232" class="box-detail">binary_sensor.* (reed switch)</text>

  <!-- Hardware arrows -->
  <path d="M 250 148 L 332 148" class="arrow"/>
  <text x="278" y="140" class="note">button press</text>

  <!-- ═══ INTEGRATION LAYER ═══ -->
  <text x="30" y="290" font-size="11" font-weight="700" fill="#999" letter-spacing="2">INTEGRATION</text>
  <line x1="30" y1="296" x2="870" y2="296" stroke="#e0e0e0" stroke-width="1"/>

  <!-- Main Cover Entity -->
  <rect x="200" y="310" width="500" height="80" rx="10" fill="url(#grad-purple)" filter="url(#shadow)"/>
  <text x="230" y="338" class="box-label" font-size="15">cover.virtual_garage_cover</text>
  <text x="230" y="358" class="box-detail" font-size="12">Position Tracking  ·  Direction Management  ·  Timer Control</text>
  <text x="230" y="374" class="box-detail">open_cover  |  close_cover  |  stop_cover  |  set_cover_position</text>

  <!-- Arrow: Integration → Switch -->
  <path d="M 300 310 L 150 184" class="arrow-highlight"/>
  <text x="190" y="250" class="note" fill="#03a9f4" font-weight="600">switch.turn_on</text>
  <text x="190" y="264" class="note" fill="#03a9f4">(single / triple press)</text>

  <!-- Arrow: Closed Sensor → Integration -->
  <path d="M 755 176 L 620 310" class="arrow-sensor"/>
  <text x="660" y="260" class="note" fill="#4caf50" font-weight="600">calibrate → 0%</text>

  <!-- Arrow: Open Sensor → Integration -->
  <path d="M 755 248 L 680 310" class="arrow-sensor"/>
  <text x="718" y="290" class="note" fill="#4caf50">calibrate → 100%</text>

  <!-- ═══ TRI-STATE CYCLE ═══ -->
  <text x="30" y="430" font-size="11" font-weight="700" fill="#999" letter-spacing="2">TRI-STATE MOTOR CYCLE</text>
  <line x1="30" y1="436" x2="870" y2="436" stroke="#e0e0e0" stroke-width="1"/>

  <!-- Cycle visualization -->
  <!-- Opening -->
  <rect x="60" y="456" width="160" height="44" rx="22" fill="#e3f2fd" stroke="#1976d2" stroke-width="2"/>
  <text x="140" y="483" text-anchor="middle" class="cycle-text cycle-active">OPENING ▲</text>

  <!-- Arrow 1 -->
  <path d="M 228 478 L 270 478" class="arrow"/>
  <text x="249" y="470" text-anchor="middle" class="note">press</text>

  <!-- Stopped 1 -->
  <rect x="278" y="456" width="120" height="44" rx="22" fill="#fff3e0" stroke="#f57c00" stroke-width="2"/>
  <text x="338" y="483" text-anchor="middle" class="cycle-text" fill="#f57c00">STOPPED ■</text>

  <!-- Arrow 2 -->
  <path d="M 406 478 L 448 478" class="arrow"/>
  <text x="427" y="470" text-anchor="middle" class="note">press</text>

  <!-- Closing -->
  <rect x="456" y="456" width="160" height="44" rx="22" fill="#e8f5e9" stroke="#43a047" stroke-width="2"/>
  <text x="536" y="483" text-anchor="middle" class="cycle-text" fill="#43a047">CLOSING ▼</text>

  <!-- Arrow 3 -->
  <path d="M 624 478 L 666 478" class="arrow"/>
  <text x="645" y="470" text-anchor="middle" class="note">press</text>

  <!-- Stopped 2 -->
  <rect x="674" y="456" width="120" height="44" rx="22" fill="#fff3e0" stroke="#f57c00" stroke-width="2"/>
  <text x="734" y="483" text-anchor="middle" class="cycle-text" fill="#f57c00">STOPPED ■</text>

  <!-- Cycle-back arrow -->
  <path d="M 794 496 Q 794 530 450 530 Q 60 530 60 500" stroke="#888" stroke-width="1.5" fill="none" stroke-dasharray="5 3" marker-end="url(#arrowhead)"/>
  <text x="450" y="545" text-anchor="middle" class="note">cycle repeats</text>

  <!-- ═══ DIRECTION REVERSAL ═══ -->
  <rect x="60" y="565" width="780" height="40" rx="8" fill="#e8eaf6"/>
  <text x="80" y="586" font-size="12" fill="#3949ab" font-weight="600">Direction reversal (triple-press):</text>
  <text x="330" y="586" font-size="12" fill="#3949ab">Press① start wrong dir → </text>
  <text x="540" y="586" font-size="12" fill="#3949ab">Press② stop → </text>
  <text x="650" y="586" font-size="12" fill="#3949ab">Press③ start correct dir</text>

  <!-- Legend -->
  <line x1="50" y1="612" x2="70" y2="612" class="arrow-highlight" stroke-width="2"/>
  <text x="75" y="616" class="legend-text">Control signal</text>
  <line x1="200" y1="612" x2="220" y2="612" class="arrow-sensor" stroke-width="2"/>
  <text x="225" y="616" class="legend-text">Sensor calibration (optional)</text>
  <rect x="400" y="606" width="12" height="12" rx="2" fill="url(#grad-purple)" opacity="0.7"/>
  <text x="418" y="616" class="legend-text">Integration logic</text>
</svg>
